[ConversionWorker] Logging FFmpeg output to: ffmpeg_logs\ffmpeg_conversion_高冷16_wav_20250525_174057.log\n[ConversionWorker] Getting duration with command: ffprobe -v error -show_entries format=duration -of default=noprint_wrappers=1:nokey=1 Z:\Story\高冷\高冷16.wav\n[ConversionWorker] Duration for 高冷16.wav: 3235306 ms\n[ConversionWorker] Starting FFmpeg for 高冷16.wav: ffmpeg -i Z:\Story\高冷\高冷16.wav -b:a 128k -vn -y -loglevel error -stats -progress pipe:1 Z:\Story\高冷\高冷16.mp3\n[ConversionWorker] FFmpeg process started. PID: 25116\n[STDOUT RAW] bitrate= 123.5kbits/s\n[STDOUT RAW] total_size=73004\n[STDOUT RAW] out_time_us=4729958\n[STDOUT RAW] out_time_ms=4729958\n[STDOUT RAW] out_time=00:00:04.729958\n[STDOUT RAW] dup_frames=0\n[STDOUT RAW] drop_frames=0\n[STDOUT RAW] speed=8.99x\n[STDOUT RAW] progress=continue\n[STDERR RAW] size=      71KiB time=00:00:04.72 bitrate= 123.5kbits/s speed=8.99x\n[STDOUT RAW] bitrate= 125.6kbits/s\n[STDOUT RAW] total_size=142508\n[STDOUT RAW] out_time_us=9073958\n[STDOUT RAW] out_time_ms=9073958\n[STDOUT RAW] out_time=00:00:09.073958\n[STDOUT RAW] dup_frames=0\n[STDOUT RAW] drop_frames=0\n[STDOUT RAW] speed=8.75x\n[STDOUT RAW] progress=continue\n[STDERR RAW] size=     139KiB time=00:00:09.07 bitrate= 125.6kbits/s speed=8.75x\n[STDOUT RAW] bitrate= 126.5kbits/s\n[STDOUT RAW] total_size=218540\n[STDOUT RAW] out_time_us=13825958\n[STDOUT RAW] out_time_ms=13825958\n[STDOUT RAW] out_time=00:00:13.825958\n[STDOUT RAW] dup_frames=0\n[STDOUT RAW] drop_frames=0\n[STDOUT RAW] speed=8.94x\n[STDOUT RAW] progress=continue\n[STDERR RAW] size=     213KiB time=00:00:13.82 bitrate= 126.5kbits/s speed=8.94x\n[STDOUT RAW] bitrate= 123.2kbits/s\n[STDOUT RAW] total_size=1048576\n[STDOUT RAW] out_time_us=68113958\n[STDOUT RAW] out_time_ms=68113958\n[STDOUT RAW] out_time=00:01:08.113958\n[STDOUT RAW] dup_frames=0\n[STDOUT RAW] drop_frames=0\n[STDOUT RAW] speed=33.1x\n[STDOUT RAW] progress=continue\n[STDERR RAW] size=    1024KiB time=00:01:08.11 bitrate= 123.2kbits/s speed=33.1x\n[STDOUT RAW] bitrate= 117.3kbits/s\n[STDOUT RAW] total_size=2621440\n[STDOUT RAW] out_time_us=178801958\n[STDOUT RAW] out_time_ms=178801958\n[STDOUT RAW] out_time=00:02:58.801958\n[STDOUT RAW] dup_frames=0\n[STDOUT RAW] drop_frames=0\n[STDOUT RAW] speed=69.1x\n[STDOUT RAW] progress=continue\n[STDERR RAW] size=    2560KiB time=00:02:58.80 bitrate= 117.3kbits/s speed=69.1x\n[STDOUT RAW] bitrate= 127.8kbits/s\n[STDOUT RAW] total_size=4456448\n[STDOUT RAW] out_time_us=278977958\n[STDOUT RAW] out_time_ms=278977958\n[STDOUT RAW] out_time=00:04:38.977958\n[STDOUT RAW] dup_frames=0\n[STDOUT RAW] drop_frames=0\n[STDOUT RAW] speed=90.3x\n[STDOUT RAW] progress=continue\n[STDERR RAW] size=    4352KiB time=00:04:38.97 bitrate= 127.8kbits/s speed=90.3x\n[STDOUT RAW] bitrate= 126.1kbits/s\n[STDOUT RAW] total_size=6029312\n[STDOUT RAW] out_time_us=382585958\n[STDOUT RAW] out_time_ms=382585958\n[STDOUT RAW] out_time=00:06:22.585958\n[STDOUT RAW] dup_frames=0\n[STDOUT RAW] drop_frames=0\n[STDOUT RAW] speed= 106x\n[STDOUT RAW] progress=continue\n[STDOUT RAW] bitrate= 123.8kbits/s\n[STDERR RAW] size=    5888KiB time=00:06:22.58 bitrate= 126.1kbits/s speed= 106x\n[STDOUT RAW] total_size=7602176\n[STDOUT RAW] out_time_us=491113958\n[STDOUT RAW] out_time_ms=491113958\n[STDOUT RAW] out_time=00:08:11.113958\n[STDOUT RAW] dup_frames=0\n[STDOUT RAW] drop_frames=0\n[STDOUT RAW] speed= 119x\n[STDOUT RAW] progress=continue\n[STDERR RAW] size=    7424KiB time=00:08:11.11 bitrate= 123.8kbits/s speed= 119x\n[STDOUT RAW] bitrate= 126.4kbits/s\n[STDOUT RAW] total_size=9437184\n[STDOUT RAW] out_time_us=597289958\n[STDOUT RAW] out_time_ms=597289958\n[STDOUT RAW] out_time=00:09:57.289958\n[STDOUT RAW] dup_frames=0\n[STDOUT RAW] drop_frames=0\n[STDOUT RAW] speed= 129x\n[STDOUT RAW] progress=continue\n[STDERR RAW] size=    9216KiB time=00:09:57.28 bitrate= 126.4kbits/s speed= 129x\n[STDOUT RAW] bitrate= 125.4kbits/s\n[STDOUT RAW] total_size=11010048\n[STDOUT RAW] out_time_us=702169958\n[STDOUT RAW] out_time_ms=702169958\n[STDOUT RAW] out_time=00:11:42.169958\n[STDOUT RAW] dup_frames=0\n[STDOUT RAW] drop_frames=0\n[STDOUT RAW] speed= 136x\n[STDOUT RAW] progress=continue\n[STDERR RAW] size=   10752KiB time=00:11:42.16 bitrate= 125.4kbits/s speed= 136x\n[STDOUT RAW] bitrate= 125.4kbits/s\n[STDOUT RAW] total_size=12582912\n[STDOUT RAW] out_time_us=802945958\n[STDOUT RAW] out_time_ms=802945958\n[STDOUT RAW] out_time=00:13:22.945958\n[STDOUT RAW] dup_frames=0\n[STDOUT RAW] drop_frames=0\n[STDOUT RAW] speed= 142x\n[STDOUT RAW] progress=continue\n[STDERR RAW] size=   12288KiB time=00:13:22.94 bitrate= 125.4kbits/s speed= 142x\n[STDOUT RAW] bitrate= 126.9kbits/s\n[STDOUT RAW] total_size=14417920\n[STDOUT RAW] out_time_us=909025958\n[STDOUT RAW] out_time_ms=909025958\n[STDOUT RAW] out_time=00:15:09.025958\n[STDOUT RAW] dup_frames=0\n[STDOUT RAW] drop_frames=0\n[STDOUT RAW] speed= 147x\n[STDOUT RAW] progress=continue\n[STDERR RAW] size=   14080KiB time=00:15:09.02 bitrate= 126.9kbits/s speed= 147x\n[STDOUT RAW] bitrate= 127.9kbits/s\n[STDOUT RAW] total_size=16252928\n[STDOUT RAW] out_time_us=1016401958\n[STDOUT RAW] out_time_ms=1016401958\n[STDOUT RAW] out_time=00:16:56.401958\n[STDOUT RAW] dup_frames=0\n[STDOUT RAW] drop_frames=0\n[STDOUT RAW] speed= 151x\n[STDOUT RAW] progress=continue\n[STDERR RAW] size=   15872KiB time=00:16:56.40 bitrate= 127.9kbits/s speed= 151x\n[STDOUT RAW] bitrate= 127.4kbits/s\n[STDOUT RAW] total_size=17825792\n[STDOUT RAW] out_time_us=1118977958\n[STDOUT RAW] out_time_ms=1118977958\n[STDOUT RAW] out_time=00:18:38.977958\n[STDOUT RAW] dup_frames=0\n[STDOUT RAW] drop_frames=0\n[STDOUT RAW] speed= 155x\n[STDOUT RAW] progress=continue\n[STDERR RAW] size=   17408KiB time=00:18:38.97 bitrate= 127.4kbits/s speed= 155x\n[STDOUT RAW] bitrate= 126.9kbits/s\n[STDOUT RAW] total_size=19398656\n[STDOUT RAW] out_time_us=1222609958\n[STDOUT RAW] out_time_ms=1222609958\n[STDOUT RAW] out_time=00:20:22.609958\n[STDOUT RAW] dup_frames=0\n[STDOUT RAW] drop_frames=0\n[STDOUT RAW] speed= 158x\n[STDOUT RAW] progress=continue\n[STDERR RAW] size=   18944KiB time=00:20:22.60 bitrate= 126.9kbits/s speed= 158x\n[STDOUT RAW] bitrate= 126.4kbits/s\n[STDOUT RAW] total_size=20971520\n[STDOUT RAW] out_time_us=1327225958\n[STDOUT RAW] out_time_ms=1327225958\n[STDOUT RAW] out_time=00:22:07.225958\n[STDOUT RAW] dup_frames=0\n[STDOUT RAW] drop_frames=0\n[STDOUT RAW] speed= 161x\n[STDOUT RAW] progress=continue\n[STDERR RAW] size=   20480KiB time=00:22:07.22 bitrate= 126.4kbits/s speed= 161x\n[STDOUT RAW] bitrate= 126.5kbits/s\n[STDOUT RAW] total_size=22544384\n[STDOUT RAW] out_time_us=1425529958\n[STDOUT RAW] out_time_ms=1425529958\n[STDOUT RAW] out_time=00:23:45.529958\n[STDOUT RAW] dup_frames=0\n[STDOUT RAW] drop_frames=0\n[STDOUT RAW] speed= 163x\n[STDOUT RAW] progress=continue\n[STDERR RAW] size=   22016KiB time=00:23:45.52 bitrate= 126.5kbits/s speed= 163x\n[STDOUT RAW] bitrate= 127.8kbits/s\n[STDOUT RAW] total_size=24379392\n[STDOUT RAW] out_time_us=1526353958\n[STDOUT RAW] out_time_ms=1526353958\n[STDOUT RAW] out_time=00:25:26.353958\n[STDOUT RAW] dup_frames=0\n[STDOUT RAW] drop_frames=0\n[STDOUT RAW] speed= 165x\n[STDOUT RAW] progress=continue\n[STDERR RAW] size=   23808KiB time=00:25:26.35 bitrate= 127.8kbits/s speed= 165x\n[STDOUT RAW] bitrate= 127.2kbits/s\n[STDOUT RAW] total_size=25952256\n[STDOUT RAW] out_time_us=1631905958\n[STDOUT RAW] out_time_ms=1631905958\n[STDOUT RAW] out_time=00:27:11.905958\n[STDOUT RAW] dup_frames=0\n[STDOUT RAW] drop_frames=0\n[STDOUT RAW] speed= 167x\n[STDOUT RAW] progress=continue\n[STDERR RAW] size=   25344KiB time=00:27:11.90 bitrate= 127.2kbits/s speed= 167x\n[STDOUT RAW] bitrate= 126.8kbits/s\n[STDOUT RAW] total_size=27525120\n[STDOUT RAW] out_time_us=1736833958\n[STDOUT RAW] out_time_ms=1736833958\n[STDOUT RAW] out_time=00:28:56.833958\n[STDOUT RAW] dup_frames=0\n[STDOUT RAW] drop_frames=0\n[STDOUT RAW] speed= 168x\n[STDOUT RAW] progress=continue\n[STDERR RAW] size=   26880KiB time=00:28:56.83 bitrate= 126.8kbits/s speed= 168x\n[STDOUT RAW] bitrate= 127.4kbits/s\n[STDOUT RAW] total_size=29360128\n[STDOUT RAW] out_time_us=1843729958\n[STDOUT RAW] out_time_ms=1843729958\n[STDOUT RAW] out_time=00:30:43.729958\n[STDOUT RAW] dup_frames=0\n[STDOUT RAW] drop_frames=0\n[STDOUT RAW] speed= 170x\n[STDOUT RAW] progress=continue\n[STDERR RAW] size=   28672KiB time=00:30:43.72 bitrate= 127.4kbits/s speed= 170x\n[STDOUT RAW] bitrate= 127.9kbits/s\n[STDOUT RAW] total_size=31195136\n[STDOUT RAW] out_time_us=1951945958\n[STDOUT RAW] out_time_ms=1951945958\n[STDOUT RAW] out_time=00:32:31.945958\n[STDOUT RAW] dup_frames=0\n[STDOUT RAW] drop_frames=0\n[STDOUT RAW] speed= 172x\n[STDOUT RAW] progress=continue\n[STDERR RAW] size=   30464KiB time=00:32:31.94 bitrate= 127.9kbits/s speed= 172x\n[STDOUT RAW] bitrate= 127.7kbits/s\n[STDOUT RAW] total_size=32768000\n[STDOUT RAW] out_time_us=2052553958\n[STDOUT RAW] out_time_ms=2052553958\n[STDOUT RAW] out_time=00:34:12.553958\n[STDOUT RAW] dup_frames=0\n[STDOUT RAW] drop_frames=0\n[STDOUT RAW] speed= 173x\n[STDOUT RAW] progress=continue\n[STDERR RAW] size=   32000KiB time=00:34:12.55 bitrate= 127.7kbits/s speed= 173x\n[STDOUT RAW] bitrate= 127.4kbits/s\n[STDOUT RAW] total_size=34340864\n[STDOUT RAW] out_time_us=2155993958\n[STDOUT RAW] out_time_ms=2155993958\n[STDOUT RAW] out_time=00:35:55.993958\n[STDOUT RAW] dup_frames=0\n[STDOUT RAW] drop_frames=0\n[STDOUT RAW] speed= 174x\n[STDOUT RAW] progress=continue\n[STDERR RAW] size=   33536KiB time=00:35:55.99 bitrate= 127.4kbits/s speed= 174x\n[STDOUT RAW] bitrate= 127.5kbits/s\n[STDOUT RAW] total_size=35913728\n[STDOUT RAW] out_time_us=2253241958\n[STDOUT RAW] out_time_ms=2253241958\n[STDOUT RAW] out_time=00:37:33.241958\n[STDOUT RAW] dup_frames=0\n[STDOUT RAW] drop_frames=0\n[STDOUT RAW] speed= 175x\n[STDOUT RAW] progress=continue\n[STDERR RAW] size=   35072KiB time=00:37:33.24 bitrate= 127.5kbits/s speed= 175x\n[STDOUT RAW] bitrate= 127.1kbits/s\n[STDOUT RAW] total_size=37486592\n[STDOUT RAW] out_time_us=2359417958\n[STDOUT RAW] out_time_ms=2359417958\n[STDOUT RAW] out_time=00:39:19.417958\n[STDOUT RAW] dup_frames=0\n[STDOUT RAW] drop_frames=0\n[STDOUT RAW] speed= 176x\n[STDOUT RAW] progress=continue\n[STDERR RAW] size=   36608KiB time=00:39:19.41 bitrate= 127.1kbits/s speed= 176x\n[STDOUT RAW] bitrate= 127.7kbits/s\n[STDOUT RAW] total_size=39321600\n[STDOUT RAW] out_time_us=2462569958\n[STDOUT RAW] out_time_ms=2462569958\n[STDOUT RAW] out_time=00:41:02.569958\n[STDOUT RAW] dup_frames=0\n[STDOUT RAW] drop_frames=0\n[STDOUT RAW] speed= 177x\n[STDOUT RAW] progress=continue\n[STDERR RAW] size=   38400KiB time=00:41:02.56 bitrate= 127.7kbits/s speed= 177x\n[STDOUT RAW] bitrate= 127.9kbits/s\n[STDOUT RAW] total_size=40632320\n[STDOUT RAW] out_time_us=2541289958\n[STDOUT RAW] out_time_ms=2541289958\n[STDOUT RAW] out_time=00:42:21.289958\n[STDOUT RAW] dup_frames=0\n[STDOUT RAW] drop_frames=0\n[STDOUT RAW] speed= 176x\n[STDOUT RAW] progress=continue\n[STDERR RAW] size=   39680KiB time=00:42:21.28 bitrate= 127.9kbits/s speed= 176x\n[STDOUT RAW] bitrate= 127.4kbits/s\n[STDOUT RAW] total_size=42205184\n[STDOUT RAW] out_time_us=2649529958\n[STDOUT RAW] out_time_ms=2649529958\n[STDOUT RAW] out_time=00:44:09.529958\n[STDOUT RAW] dup_frames=0\n[STDOUT RAW] drop_frames=0\n[STDOUT RAW] speed= 177x\n[STDOUT RAW] progress=continue\n[STDERR RAW] size=   41216KiB time=00:44:09.52 bitrate= 127.4kbits/s speed= 177x\n[STDOUT RAW] bitrate= 127.3kbits/s\n[STDOUT RAW] total_size=43778048\n[STDOUT RAW] out_time_us=2750209958\n[STDOUT RAW] out_time_ms=2750209958\n[STDOUT RAW] out_time=00:45:50.209958\n[STDOUT RAW] dup_frames=0\n[STDOUT RAW] drop_frames=0\n[STDOUT RAW] speed= 178x\n[STDOUT RAW] progress=continue\n[STDERR RAW] size=   42752KiB time=00:45:50.20 bitrate= 127.3kbits/s speed= 178x\n[STDOUT RAW] bitrate= 127.3kbits/s\n[STDOUT RAW] total_size=45350912\n[STDOUT RAW] out_time_us=2849329958\n[STDOUT RAW] out_time_ms=2849329958\n[STDOUT RAW] out_time=00:47:29.329958\n[STDOUT RAW] dup_frames=0\n[STDOUT RAW] drop_frames=0\n[STDOUT RAW] speed= 178x\n[STDOUT RAW] progress=continue\n[STDERR RAW] size=   44288KiB time=00:47:29.32 bitrate= 127.3kbits/s speed= 178x\n[STDOUT RAW] bitrate= 127.8kbits/s\n[STDOUT RAW] total_size=47185920\n[STDOUT RAW] out_time_us=2952721958\n[STDOUT RAW] out_time_ms=2952721958\n[STDOUT RAW] out_time=00:49:12.721958\n[STDOUT RAW] dup_frames=0\n[STDOUT RAW] drop_frames=0\n[STDOUT RAW] speed= 179x\n[STDOUT RAW] progress=continue\n[STDERR RAW] size=   46080KiB time=00:49:12.72 bitrate= 127.8kbits/s speed= 179x\n[STDOUT RAW] bitrate= 127.9kbits/s\n[STDOUT RAW] total_size=48758784\n[STDOUT RAW] out_time_us=3050593958\n[STDOUT RAW] out_time_ms=3050593958\n[STDOUT RAW] out_time=00:50:50.593958\n[STDOUT RAW] dup_frames=0\n[STDOUT RAW] drop_frames=0\n[STDOUT RAW] speed= 179x\n[STDOUT RAW] progress=continue\n[STDERR RAW] size=   47616KiB time=00:50:50.59 bitrate= 127.9kbits/s speed= 179x\n[STDOUT RAW] bitrate= 127.5kbits/s\n[STDOUT RAW] total_size=50331648\n[STDOUT RAW] out_time_us=3156961958\n[STDOUT RAW] out_time_ms=3156961958\n[STDOUT RAW] out_time=00:52:36.961958\n[STDOUT RAW] dup_frames=0\n[STDOUT RAW] drop_frames=0\n[STDOUT RAW] speed= 180x\n[STDOUT RAW] progress=continue\n[STDERR RAW] size=   49152KiB time=00:52:36.96 bitrate= 127.5kbits/s speed= 180x\n[STDERR RAW] size=   50553KiB time=00:53:55.30 bitrate= 128.0kbits/s speed= 180x\n[STDOUT RAW] bitrate= 128.0kbits/s\n[STDOUT RAW] total_size=51766316\n[STDOUT RAW] out_time_us=3235306000\n[STDOUT RAW] out_time_ms=3235306000\n[STDOUT RAW] out_time=00:53:55.306000\n[STDOUT RAW] dup_frames=0\n[STDOUT RAW] drop_frames=0\n[STDOUT RAW] speed= 180x\n[STDOUT RAW] progress=end\n[ConversionWorker] STDERR pipe closed signal received.\n[ConversionWorker] Detected 'progress=end' for 高冷16.wav\n[ConversionWorker] STDOUT pipe closed signal received.\n[ConversionWorker] Process finished and both stream pipes closed. Exiting loop.\n[ConversionWorker] Waiting for reader threads to join...\n[ConversionWorker] FFmpeg process ended. Return code: 0\n[ConversionWorker] Closing FFmpeg log file.\n